<svg version="1.1" id="Layer_1" xmlns="http://www.w3.org/2000/svg" xmlns:xlink="http://www.w3.org/1999/xlink" x="0px" y="0px"
	 width="200" viewBox="130 210 465 290" enable-background="new 0 0 736 725" xml:space="preserve">
<path fill="#ffff" opacity="1.000000" stroke="none" 
	d="
M471.999023,282.443909 
	C477.280182,282.445435 482.061371,282.445435 487.236603,282.445435 
	C487.236603,276.327393 487.236603,270.723297 487.236603,264.428406 
	C493.315521,264.428406 499.027435,264.428406 505.218567,264.428406 
	C505.218567,258.164612 505.218567,252.576645 505.218567,246.402618 
	C511.426117,246.402618 517.148376,246.402618 523.466431,246.402618 
	C523.466431,240.097153 523.466431,234.375534 523.466431,228.231201 
	C529.659424,228.231201 535.252808,228.231201 541.293213,228.231201 
	C541.293213,222.225327 541.293213,216.635498 541.293213,210.683411 
	C547.463989,210.683411 553.182007,210.683411 559.306702,210.683411 
	C559.306702,216.284653 559.306702,221.881424 559.306702,227.980347 
	C565.431091,227.980347 571.183228,227.980347 577.535400,227.980347 
	C577.535400,276.349396 577.535400,324.220703 577.535400,372.609375 
	C583.854919,372.609375 589.589294,372.609375 595.560608,372.609375 
	C595.560608,402.863068 595.560608,432.596039 595.560608,462.718872 
	C589.711975,462.718872 584.110291,462.718872 577.966370,462.718872 
	C577.966370,468.818329 577.966370,474.550690 577.966370,480.848724 
	C571.709778,480.848724 565.982056,480.848724 559.756836,480.848724 
	C559.756836,486.978851 559.756836,492.551910 559.756836,498.465942 
	C481.367188,498.465942 403.491425,498.465942 325.086151,498.465942 
	C325.086151,492.932983 325.086151,487.375397 325.086151,481.192444 
	C312.870972,481.192444 301.162354,481.192444 288.829742,481.192444 
	C288.829742,474.861755 288.829742,469.131378 288.829742,462.913269 
	C270.469269,462.913269 252.733002,462.913269 234.539764,462.913269 
	C234.539764,456.808319 234.539764,451.200653 234.539764,445.255066 
	C216.353485,445.255066 198.628326,445.255066 180.363235,445.255066 
	C180.363235,451.034821 180.363235,456.773621 180.363235,462.604584 
	C162.077667,462.604584 144.331406,462.604584 126.313606,462.604584 
	C126.313606,444.705566 126.313606,427.103973 126.313606,408.993164 
	C131.976181,408.993164 137.703476,408.993164 143.913574,408.993164 
	C143.913574,402.762543 143.913574,397.017609 143.913574,390.930542 
	C174.144394,390.930542 203.893890,390.930542 234.246445,390.930542 
	C234.246445,396.532013 234.246445,402.260925 234.246445,408.330322 
	C240.415421,408.330322 245.993042,408.330322 252.106415,408.330322 
	C252.106415,384.769226 252.106415,361.029144 252.106415,336.691986 
	C258.337250,336.691986 264.072998,336.691986 270.257629,336.691986 
	C270.257629,330.520752 270.257629,324.932770 270.257629,318.640900 
	C276.543945,318.640900 282.424225,318.640900 288.688477,318.640900 
	C288.688477,312.357666 288.688477,306.763733 288.688477,300.617249 
	C300.814087,300.617249 312.546967,300.617249 324.689484,300.617249 
	C324.689484,294.456940 324.689484,288.849487 324.689484,282.627625 
	C330.795166,282.627625 336.509918,282.627625 342.776245,282.627625 
	C342.776245,276.280365 342.776245,270.538513 342.776245,264.415863 
	C348.936005,264.415863 354.542999,264.415863 360.756470,264.415863 
	C360.756470,258.330139 360.756470,252.596771 360.756470,246.450745 
	C366.967163,246.450745 372.578827,246.450745 378.739807,246.450745 
	C378.739807,240.305817 378.739807,234.570618 378.739807,228.290726 
	C385.008362,228.290726 390.740570,228.290726 396.884308,228.290726 
	C396.884308,222.151367 396.884308,216.547897 396.884308,210.632217 
	C403.052551,210.632217 408.788605,210.632217 414.984863,210.632217 
	C414.984863,216.411255 414.984863,221.995605 414.984863,228.159790 
	C421.154572,228.159790 426.890320,228.159790 433.189789,228.159790 
	C433.189789,240.469940 433.189789,252.201859 433.189789,264.227295 
	C439.385406,264.227295 445.004822,264.227295 451.169739,264.227295 
	C451.169739,270.259766 451.169739,276.005005 451.169739,282.442413 
	C458.299622,282.442413 464.899353,282.442413 471.999023,282.443909 
M369.564880,282.474426 
	C366.795532,282.474426 364.026184,282.474426 361.300446,282.474426 
	C361.300446,288.842773 361.300446,294.560120 361.300446,300.178894 
	C373.393097,300.178894 385.094818,300.178894 397.240570,300.178894 
	C397.240570,294.152405 397.240570,288.550812 397.240570,282.361786 
	C403.394226,282.361786 409.106354,282.361786 414.822906,282.361786 
	C414.822906,270.144897 414.822906,258.540588 414.822906,246.631592 
	C408.873749,246.631592 403.153412,246.631592 396.814819,246.631592 
	C396.814819,252.627792 396.814819,258.346558 396.814819,264.434998 
	C390.596985,264.434998 384.991913,264.434998 378.915405,264.434998 
	C378.915405,270.571136 378.915405,276.318726 378.915405,282.474182 
	C375.810333,282.474182 373.175232,282.474182 369.564880,282.474426 
M525.979370,264.276520 
	C525.149292,264.836121 523.618530,265.371704 523.598389,265.959076 
	C523.413025,271.365509 523.489136,276.780914 523.489136,282.631653 
	C529.665405,282.631653 535.246399,282.631653 541.424927,282.631653 
	C541.424927,288.774628 541.424927,294.488312 541.424927,300.304565 
	C547.756531,300.304565 553.469727,300.304565 559.204468,300.304565 
	C559.204468,282.156006 559.204468,264.324371 559.204468,246.746231 
	C553.045105,246.746231 547.330322,246.746231 541.189575,246.746231 
	C541.189575,252.781250 541.189575,258.363007 541.189575,264.254547 
	C536.128052,264.254547 531.511902,264.254547 525.979370,264.276520 
M505.596741,425.853638 
	C508.957428,426.188354 512.316162,426.787048 515.679199,426.811981 
	C530.126831,426.919220 544.575684,426.857758 559.303467,426.857758 
	C559.303467,420.678223 559.303467,414.941986 559.303467,409.095215 
	C541.293945,409.095215 523.440125,409.095215 505.426605,409.095215 
	C505.426605,414.648987 505.426605,419.804932 505.596741,425.853638 
M378.955109,412.588684 
	C378.955109,417.192230 378.955109,421.795746 378.955109,426.546997 
	C397.296082,426.546997 415.019501,426.546997 432.874268,426.546997 
	C432.874268,420.496185 432.874268,414.774261 432.874268,408.712616 
	C415.600464,408.712616 398.643585,408.667419 381.688843,408.835938 
	C380.768433,408.845062 379.865814,410.641724 378.955109,412.588684 
z"/>
<path fill="#0B0B0B" opacity="1.000000" stroke="none" 
	d="
M370.052490,282.474304 
	C373.175232,282.474182 375.810333,282.474182 378.915405,282.474182 
	C378.915405,276.318726 378.915405,270.571136 378.915405,264.434998 
	C384.991913,264.434998 390.596985,264.434998 396.814819,264.434998 
	C396.814819,258.346558 396.814819,252.627792 396.814819,246.631592 
	C403.153412,246.631592 408.873749,246.631592 414.822906,246.631592 
	C414.822906,258.540588 414.822906,270.144897 414.822906,282.361786 
	C409.106354,282.361786 403.394226,282.361786 397.240570,282.361786 
	C397.240570,288.550812 397.240570,294.152405 397.240570,300.178894 
	C385.094818,300.178894 373.393097,300.178894 361.300446,300.178894 
	C361.300446,294.560120 361.300446,288.842773 361.300446,282.474426 
	C364.026184,282.474426 366.795532,282.474426 370.052490,282.474304 
z"/>
<path fill="#111111" opacity="1.000000" stroke="none" 
	d="
M526.437500,264.265533 
	C531.511902,264.254547 536.128052,264.254547 541.189575,264.254547 
	C541.189575,258.363007 541.189575,252.781250 541.189575,246.746231 
	C547.330322,246.746231 553.045105,246.746231 559.204468,246.746231 
	C559.204468,264.324371 559.204468,282.156006 559.204468,300.304565 
	C553.469727,300.304565 547.756531,300.304565 541.424927,300.304565 
	C541.424927,294.488312 541.424927,288.774628 541.424927,282.631653 
	C535.246399,282.631653 529.665405,282.631653 523.489136,282.631653 
	C523.489136,276.780914 523.413025,271.365509 523.598389,265.959076 
	C523.618530,265.371704 525.149292,264.836121 526.437500,264.265533 
z"/>
<path fill="#0B0B0B" opacity="1.000000" stroke="none" 
	d="
M505.511658,425.407257 
	C505.426605,419.804932 505.426605,414.648987 505.426605,409.095215 
	C523.440125,409.095215 541.293945,409.095215 559.303467,409.095215 
	C559.303467,414.941986 559.303467,420.678223 559.303467,426.857758 
	C544.575684,426.857758 530.126831,426.919220 515.679199,426.811981 
	C512.316162,426.787048 508.957428,426.188354 505.511658,425.407257 
z"/>
<path fill="#080808" opacity="1.000000" stroke="none" 
	d="
M378.955017,412.097473 
	C379.865814,410.641724 380.768433,408.845062 381.688843,408.835938 
	C398.643585,408.667419 415.600464,408.712616 432.874268,408.712616 
	C432.874268,414.774261 432.874268,420.496185 432.874268,426.546997 
	C415.019501,426.546997 397.296082,426.546997 378.955109,426.546997 
	C378.955109,421.795746 378.955109,417.192230 378.955017,412.097473 
z"/>
</svg>